<svg width="16" height="16" viewBox="0 0 16 16" fill="none" xmlns="http://www.w3.org/2000/svg">
<path d="M8 1.60059C8.13913 1.60059 8.27714 1.60648 8.41406 1.61523L6.84668 9.45703C6.82115 9.58475 6.80764 9.69115 6.80762 9.77637C6.80762 10.0834 6.91059 10.3308 7.11523 10.5186C7.32855 10.7063 7.61014 10.8008 7.95996 10.8008H13.7559C12.7172 12.932 10.5303 14.4003 8 14.4004C4.46545 14.4004 1.59973 11.5355 1.59961 8.00098C1.59961 4.46635 4.46538 1.60059 8 1.60059ZM10.1348 1.9668C12.6194 2.84598 14.3994 5.21517 14.3994 8.00098C14.3994 8.46998 14.3477 8.92688 14.252 9.36719H8.65137L10.1348 1.9668Z" fill="#33FF9C"/>
</svg>
